<?xml version="1.0" encoding="utf-8"?>
<!-- Generator: Adobe Illustrator 23.0.1, SVG Export Plug-In . SVG Version: 6.00 Build 0)  -->
<svg version="1.1" id="logo_eme" xmlns="http://www.w3.org/2000/svg" xmlns:xlink="http://www.w3.org/1999/xlink" x="0px" y="0px"
	 viewBox="0 0 960 560" style="enable-background:new 0 0 960 560;" xml:space="preserve">
<style type="text/css">
	.st0{fill:#252850;stroke:#252850;stroke-width:0.5;stroke-miterlimit:10;}
	.st1{fill:#151F47;stroke:#252850;stroke-width:0.5;stroke-miterlimit:10;}
	.st2{fill:#151F47;}
</style>
<g>
	<polygon class="st0" points="365.76,534.92 239.91,552.26 239.91,113.73 352.46,99.45 484.45,309.54 616.44,62.73 730.81,46.42 
		730.81,483.93 606.21,501.27 602.12,310.56 517.19,474.75 452.28,483.93 364.74,348.29 	"/>
	<polygon class="st0" points="365.76,534.92 365.64,534.02 240.82,551.22 240.82,114.53 352,100.42 484.51,311.35 617.03,63.57 
		729.91,47.46 729.91,483.14 607.1,500.23 602.95,306.97 516.6,473.92 452.73,482.95 363.81,345.18 364.85,534.93 365.76,534.92 
		365.64,534.02 365.76,534.92 366.67,534.92 365.66,351.4 451.83,484.91 517.79,475.59 601.29,314.14 605.33,502.31 731.72,484.72 
		731.72,45.37 615.86,61.9 484.39,307.73 352.92,98.47 239,112.93 239,553.3 366.67,535.71 366.67,534.92 	"/>
	<polygon class="st1" points="226.6,552.26 173.74,520.65 173.74,78.03 288,64.77 352.46,99.45 239.91,113.73 239.91,552.26 	"/>
	<path class="st0" d="M172.83,521.16"/>
	<polygon class="st1" points="452.28,483.93 390.32,452.32 365.1,413.55 364.74,348.29 	"/>
	<polygon class="st0" points="452.28,483.93 452.69,483.12 390.95,451.62 366,413.28 365.66,351.4 451.51,484.42 452.28,483.93 
		452.69,483.12 452.28,483.93 453.04,483.44 363.81,345.18 364.19,413.82 389.69,453.02 454.87,486.28 453.04,483.44 	"/>
	<polygon class="st1" points="606.21,501.27 540.73,470.67 540.73,429.25 602.12,310.56 	"/>
	<polygon class="st0" points="606.21,501.27 606.6,500.44 541.64,470.09 541.64,429.47 601.29,314.14 605.3,501.29 606.21,501.27 
		606.6,500.44 606.21,501.27 607.12,501.25 602.95,306.97 539.82,429.03 539.82,471.25 607.15,502.71 607.12,501.25 	"/>
	<polygon class="st1" points="730.81,46.42 666.58,10.38 553.01,28.4 441.8,241.65 484.45,309.54 616.44,62.73 	"/>
	<polygon class="st0" points="730.81,46.42 731.26,45.62 666.75,9.43 552.41,27.57 440.75,241.69 484.51,311.35 617.03,63.57 
		733.6,46.94 731.26,45.62 730.81,46.42 730.69,45.52 615.86,61.9 484.39,307.73 442.84,241.6 553.6,29.23 666.41,11.33 
		730.37,47.21 730.81,46.42 730.69,45.52 	"/>
</g>
<path class="st2" d="M80.12,286.2"/>
</svg>
